# xmcd
#
# Track frame offsets:
#	150
#	32525
#	62172
#	78160
#	101552
#	124932
#	155722
#	176155
#	210105
#	233857
#	246215
#	274867
#	293210
#
# Disc length: 4491 seconds
#
# Revision: 0
# Processed by: cddbd v1.5.2PL0 Copyright (c) Steve Scherf et al.
# Submitted via: audiograbber 1.83.01
#
DISCID=b311890d
DTITLE=Skinny Puppy - Remix Dystemper
DYEAR=1998
DGENRE=Industrial
TTITLE0=Skinny Puppy - Rodent (Ken 'Hiwatt' Marshall Remix) (DDT Mix)
TTITLE1=Skinny Puppy - Addiction (Günter Schulz Of KMFDM Remix) (Opium Mix) 
TTITLE2=Skinny Puppy - Smothered Hope (Ogre And Mark Walk Remix) 
TTITLE3=Skinny Puppy - Killing Game (Autechre Remix) (Bent Mix) 
TTITLE4=Skinny Puppy - Love In Vein (Neotropic Remix) (Go Girl Trio Mix) 
TTITLE5=Skinny Puppy - Worlock (Rhys Fulber Remix) (Eye Of The Beholder Mix) 
TTITLE6=Skinny Puppy - Spasmolytic (Deftones Remix) (Habitual Mix)
TTITLE7=Skinny Puppy - Tin Omen (Adrian Sherwood Remix) (Main Mix) 
TTITLE8=Skinny Puppy - Testure (God Lives Underwater Remix)
TTITLE9=Skinny Puppy - Dig It (Mark Walk Remix)
TTITLE10=Skinny Puppy - Assimilate (Chris Vrenna Remix) (Tweaker Mix) 
TTITLE11=Skinny Puppy - Censor (Guru Remix) (The Gutter Mix) 
TTITLE12=Skinny Puppy - Chainsaw (Josh Wink Remix) 
EXTD=
EXTT0=
EXTT1=
EXTT2=
EXTT3=
EXTT4=
EXTT5=
EXTT6=
EXTT7=
EXTT8=
EXTT9=
EXTT10=
EXTT11=
EXTT12=
PLAYORDER=
